<svg xmlns="http://www.w3.org/2000/svg" viewBox="0 0 100 100">
  <defs>
    <linearGradient id="blinkGradient" x1="0%" y1="0%" x2="100%" y2="100%">
      <stop offset="0%" stop-color="#4facfe" />
      <stop offset="100%" stop-color="#b845f2" />
    </linearGradient>
    
    <mask id="cutoutMask">
      <rect width="100" height="100" fill="white" />
      <g transform="translate(42, 50)">
        <ellipse cx="0" cy="0" rx="8.5" ry="25" transform="rotate(45)" stroke="black" stroke-width="4.5" fill="none" />
        <ellipse cx="0" cy="0" rx="8.5" ry="25" transform="rotate(-45)" stroke="black" stroke-width="4.5" fill="none" />
        <circle cx="-17" cy="-17" r="6" fill="black" />
        <circle cx="17" cy="-17" r="6" fill="black" />
        <circle cx="-17" cy="17" r="6" fill="black" />
        <circle cx="17" cy="17" r="6" fill="black" />
      </g>
    </mask>
  </defs>
  
  <path d="M 25 10
           H 55
           C 85 10, 85 45, 62 50
           C 92 53, 90 90, 55 90
           H 25
           A 15 15 0 0 1 10 75
           V 25
           A 15 15 0 0 1 25 10
           Z" 
        fill="url(#blinkGradient)" 
        mask="url(#cutoutMask)" />
</svg>
